<svg width="22" height="20" viewBox="0 0 22 20" fill="none" xmlns="http://www.w3.org/2000/svg">
<path d="M9.42098 1.06158e-05L7.9553 1.06067e-05C6.65621 -6.21944e-05 5.56253 -0.000123483 4.66617 0.120216C3.7055 0.24919 2.78464 0.540036 2.03772 1.28588C1.2908 2.03173 0.999541 2.95127 0.870382 3.91056C0.81973 4.28677 0.790378 4.48236 0.773374 4.67902C0.749921 4.95027 0.749961 5.22356 0.750004 5.97561V6.82928C0.750004 7.28919 0.750004 7.51914 0.893084 7.66201C1.03616 7.80489 1.26645 7.80489 1.72701 7.80489H2.70403C3.1638 7.80489 3.39368 7.80489 3.53663 7.66276C3.67958 7.52064 3.68058 7.29014 3.68259 6.82915C3.6872 5.77172 3.70525 4.8207 3.77528 4.30055C3.86074 3.66581 3.99872 3.46687 4.11028 3.35546C4.22184 3.24406 4.42107 3.10629 5.05672 3.02095C5.60588 2.94722 7.8371 2.93119 9.42117 2.92776C9.88211 2.92676 10.1126 2.92626 10.2553 2.78345C10.398 2.64064 10.398 2.41084 10.398 1.95123V0.975621C10.398 0.51572 10.398 0.285759 10.2549 0.142885C10.1118 1.06125e-05 9.88155 1.06158e-05 9.42098 1.06158e-05Z" fill="#1C1C1E"/>
<path d="M12.4947 2.78345C12.352 2.64064 12.352 2.41084 12.352 1.95123V0.975617C12.352 0.515716 12.352 0.285755 12.4951 0.142881C12.6382 6.7455e-06 12.8685 6.41191e-06 13.329 5.72907e-06L14.7945 3.55627e-06C16.0937 -6.92486e-05 17.1874 -0.000128492 18.0838 0.120216C19.0445 0.24919 19.9654 0.540036 20.7123 1.28588C21.4592 2.03173 21.7505 2.95127 21.8796 3.91056C21.881 3.92049 21.9757 4.97411 21.9962 5.20112L21.9962 5.20136C21.9981 5.22246 21.999 5.23305 21.9995 5.24392C22 5.25483 22 5.26576 22 5.28761V6.82928C22 7.28917 22 7.51914 21.8569 7.66201C21.7138 7.80489 21.4836 7.80489 21.023 7.80489H20.046C19.5862 7.80489 19.3563 7.80489 19.2134 7.66276C19.0704 7.52064 19.0694 7.29014 19.0674 6.82915C19.0628 5.77172 19.0448 4.8207 18.9747 4.30055C18.8893 3.66581 18.7513 3.46687 18.6397 3.35546C18.5282 3.24406 18.3289 3.10629 17.6933 3.02095C17.1441 2.94722 14.9129 2.93119 13.3288 2.92776C12.8679 2.92676 12.6374 2.92626 12.4947 2.78345Z" fill="#1C1C1E"/>
<path d="M19.0674 10.7318C19.0628 11.7893 19.0448 12.7403 18.9747 13.2604C18.8893 13.8952 18.7513 14.0941 18.6397 14.2055C18.5282 14.3169 18.3289 14.4547 17.6933 14.5401C17.1441 14.6138 14.9129 14.6298 13.3288 14.6332C12.8679 14.6342 12.6374 14.6347 12.4947 14.7775C12.352 14.9204 12.352 15.1502 12.352 15.6098V16.5854C12.352 17.0453 12.352 17.2752 12.4951 17.4181C12.6382 17.561 12.8685 17.561 13.329 17.561H15.3452C16.0377 17.561 16.6912 17.8813 17.1148 18.4285L18.1895 19.8169C18.2822 19.9326 18.4226 20 18.571 20H21.2271C21.586 20 21.8224 19.6266 21.6684 19.3029L20.8398 17.561L20.7198 17.3213C20.5647 17.0115 20.5647 16.647 20.7198 16.3373C20.7676 16.2416 20.8302 16.1542 20.9 16.0731C21.5095 15.3662 21.7619 14.5248 21.8796 13.6504L22 12.1341V10.7317C22 10.2718 22 10.0419 21.8569 9.89898C21.7138 9.75611 21.4836 9.75611 21.023 9.75611H20.046C19.5862 9.75611 19.3563 9.75611 19.2134 9.89823C19.0704 10.0404 19.0694 10.2709 19.0674 10.7318Z" fill="#1C1C1E"/>
<path d="M10.2553 14.7775C10.398 14.9204 10.398 15.1502 10.398 15.6098V16.5854C10.398 17.0453 10.398 17.2752 10.2549 17.4181C10.1118 17.561 9.88155 17.561 9.42099 17.561H7.34366C6.04537 17.5611 5.5623 17.5611 4.66617 17.4408C3.7055 17.3118 2.78464 17.021 2.03772 16.2751C1.2908 15.5293 0.999541 14.6097 0.870382 13.6504C0.749928 12.7558 0.749931 12.6998 0.750004 11.4045L0.750004 10.7317C0.750004 10.2718 0.750004 10.0419 0.893084 9.89898C1.03616 9.75611 1.26644 9.75611 1.72701 9.75611H2.70403C3.1638 9.75611 3.39368 9.75611 3.53663 9.89823C3.67958 10.0404 3.68058 10.2709 3.68259 10.7318C3.6872 11.7893 3.70525 12.7403 3.77528 13.2604C3.86074 13.8952 3.99872 14.0941 4.11028 14.2055C4.22184 14.3169 4.42107 14.4547 5.05672 14.5401C5.60588 14.6138 7.8371 14.6298 9.42117 14.6332C9.88211 14.6342 10.1126 14.6347 10.2553 14.7775Z" fill="#1C1C1E"/>
</svg>
