<svg width="24" height="20" viewBox="0 0 24 20" fill="none" xmlns="http://www.w3.org/2000/svg">
<path fill-rule="evenodd" clip-rule="evenodd" d="M9 0C8.66565 0 8.35342 0.167101 8.16795 0.4453L6.46482 3H3C2.20435 3 1.44129 3.31607 0.87868 3.87868C0.316071 4.44129 0 5.20435 0 6V17C0 17.7957 0.316071 18.5587 0.87868 19.1213C1.44129 19.6839 2.20435 20 3 20H21C21.7957 20 22.5587 19.6839 23.1213 19.1213C23.6839 18.5587 24 17.7957 24 17V6C24 5.20435 23.6839 4.44129 23.1213 3.87868C22.5587 3.31607 21.7957 3 21 3H17.5352L15.8321 0.4453C15.6466 0.167101 15.3344 0 15 0H9ZM7.83205 4.5547L9.53518 2H14.4648L16.1679 4.5547C16.3534 4.8329 16.6656 5 17 5H21C21.2652 5 21.5196 5.10536 21.7071 5.29289C21.8946 5.48043 22 5.73478 22 6V17C22 17.2652 21.8946 17.5196 21.7071 17.7071C21.5196 17.8946 21.2652 18 21 18H3C2.73478 18 2.48043 17.8946 2.29289 17.7071C2.10536 17.5196 2 17.2652 2 17V6C2 5.73478 2.10536 5.48043 2.29289 5.29289C2.48043 5.10536 2.73478 5 3 5H7C7.33435 5 7.64658 4.8329 7.83205 4.5547ZM12 6C10.6739 6 9.40215 6.52678 8.46447 7.46447C7.52678 8.40215 7 9.67392 7 11C7 12.3261 7.52678 13.5979 8.46447 14.5355C9.40215 15.4732 10.6739 16 12 16C13.3261 16 14.5979 15.4732 15.5355 14.5355C16.4732 13.5979 17 12.3261 17 11C17 9.67392 16.4732 8.40215 15.5355 7.46447C14.5979 6.52678 13.3261 6 12 6ZM14.1213 13.1213C13.5587 13.6839 12.7956 14 12 14C11.2044 14 10.4413 13.6839 9.87868 13.1213C9.31607 12.5587 9 11.7956 9 11C9 10.2044 9.31607 9.44129 9.87868 8.87868C10.4413 8.31607 11.2044 8 12 8C12.7956 8 13.5587 8.31607 14.1213 8.87868C14.6839 9.44129 15 10.2044 15 11C15 11.7956 14.6839 12.5587 14.1213 13.1213Z" fill="white"/>
</svg>
