<svg width="54" height="54" viewBox="0 0 54 54" fill="none" xmlns="http://www.w3.org/2000/svg">
<rect width="54" height="54" rx="27" fill="#FF3B30" fill-opacity="0.1"/>
<path fill-rule="evenodd" clip-rule="evenodd" d="M21.7066 20.2929C21.518 20.1108 21.2654 20.01 21.0032 20.0122C20.741 20.0145 20.4902 20.1197 20.3048 20.3051C20.1194 20.4905 20.0142 20.7413 20.0119 21.0035C20.0096 21.2657 20.1104 21.5183 20.2926 21.7069L25.5856 26.9999L20.2926 32.2929C20.1971 32.3852 20.1209 32.4955 20.0685 32.6175C20.0161 32.7395 19.9885 32.8707 19.9873 33.0035C19.9862 33.1363 20.0115 33.268 20.0618 33.3909C20.1121 33.5138 20.1863 33.6254 20.2802 33.7193C20.3741 33.8132 20.4857 33.8875 20.6086 33.9377C20.7315 33.988 20.8632 34.0133 20.996 34.0122C21.1288 34.011 21.26 33.9834 21.382 33.931C21.504 33.8786 21.6143 33.8024 21.7066 33.7069L26.9996 28.4139L32.2926 33.7069C32.4812 33.8891 32.7338 33.9899 32.996 33.9876C33.2582 33.9853 33.509 33.8801 33.6944 33.6947C33.8798 33.5093 33.985 33.2585 33.9873 32.9963C33.9895 32.7341 33.8888 32.4815 33.7066 32.2929L28.4136 26.9999L33.7066 21.7069C33.8888 21.5183 33.9895 21.2657 33.9873 21.0035C33.985 20.7413 33.8798 20.4905 33.6944 20.3051C33.509 20.1197 33.2582 20.0145 32.996 20.0122C32.7338 20.01 32.4812 20.1108 32.2926 20.2929L26.9996 25.5859L21.7066 20.2929Z" fill="#FF3B30"/>
</svg>
