<svg width="14" height="14" viewBox="0 0 14 14" fill="none" xmlns="http://www.w3.org/2000/svg">
<path fill-rule="evenodd" clip-rule="evenodd" d="M-3.0598e-07 7C-3.30121e-07 6.44772 0.447715 6 1 6L6.58579 6L4.95989 4.37411C4.56937 3.98358 4.56937 3.35042 4.95989 2.95989C5.35042 2.56937 5.98358 2.56937 6.37411 2.95989L9.70711 6.29289C10.0976 6.68342 10.0976 7.31658 9.70711 7.70711L6.37411 11.0401C5.98358 11.4306 5.35042 11.4306 4.95989 11.0401C4.56937 10.6496 4.56937 10.0164 4.95989 9.62589L6.58579 8L1 8C0.447715 8 -2.81839e-07 7.55228 -3.0598e-07 7ZM8 13C8 12.4477 8.44772 12 9 12L11.6665 12C11.7549 11.9999 11.8397 11.9647 11.9022 11.9022C11.9648 11.8396 11.9999 11.7547 12 11.6663L12 2.33375C11.9999 2.24525 11.9647 2.1604 11.9022 2.09783C11.8396 2.03525 11.7547 2.00007 11.6662 2L9 2C8.44772 2 8 1.55228 8 1C8 0.447714 8.44772 -3.69261e-07 9 -3.93402e-07L11.667 -5.09981e-07C12.2854 0.000462949 12.8791 0.246331 13.3164 0.683612C13.7537 1.12089 13.9995 1.71384 14 2.33225L14 11.667C13.9995 12.2854 13.7537 12.8791 13.3164 13.3164C12.8791 13.7537 12.2862 13.9995 11.6677 14L9 14C8.44772 14 8 13.5523 8 13Z" fill="#34C759"/>
</svg>
